<svg xmlns="http://www.w3.org/2000/svg" xmlns:svg="http://www.w3.org/2000/svg" id="svg8" width="300" height="300" version="1.1" viewBox="0 0 300 300"><metadata id="metadata5"/><g id="layer1" transform="translate(0,-229.26665)"><rect style="fill:none;stroke:#000;stroke-width:1.93021;paint-order:stroke markers fill" id="rect2287" width="148.07" height="283.07" x="150.965" y="230.232"/><path id="path1402" d="M 150,380.05955 H 300" style="fill:none;stroke:#000;stroke-width:1;stroke-linecap:butt;stroke-linejoin:miter;stroke-opacity:1;stroke-miterlimit:4;stroke-dasharray:none"/><path id="path1546" style="fill:none;stroke:#000;stroke-width:1.14911;stroke-miterlimit:4;stroke-dasharray:none" d="m 160.57456,259.84119 v 98.85088 m 18.4146,-98.85088 v 98.85088 m 18.41461,-98.85088 v 98.85088 m 18.41461,-98.85088 v 98.85088 m 18.41461,-98.85088 v 98.85088 m 18.41461,-98.85088 v 98.85088 m 18.41459,-98.85088 v 98.85088 m 18.41463,-98.85088 v 98.85088 M 160.57456,259.84119 h 129.20373 m -129.20373,16.47514 h 129.20373 m -129.20373,16.47515 h 129.20373 m -129.20373,16.47515 h 129.20373 m -129.20373,16.47515 h 129.20373 m -129.20373,16.47514 h 129.20373 m -129.20373,16.47515 h 129.20373"/><rect id="rect1550" width="75" height="10" x="160" y="244.267" style="fill:#000;fill-opacity:1;fill-rule:nonzero;stroke:none;stroke-width:1.198;stroke-miterlimit:4;stroke-dasharray:none;paint-order:stroke markers fill"/><rect id="rect1552" width="20" height="12" x="160" y="389.267" style="fill:#000;fill-opacity:1;fill-rule:nonzero;stroke:none;stroke-width:.953155;stroke-miterlimit:4;stroke-dasharray:none;paint-order:stroke markers fill"/><rect id="rect1556" width="80" height="12" x="190" y="389.267" style="fill:#000;fill-opacity:1;fill-rule:nonzero;stroke:none;stroke-width:1.26953;stroke-miterlimit:4;stroke-dasharray:none;paint-order:stroke markers fill"/><rect id="rect1560" width="80" height="12" x="190" y="409.267" style="fill:#000;fill-opacity:1;fill-rule:nonzero;stroke:none;stroke-width:1.40549;stroke-miterlimit:4;stroke-dasharray:none;paint-order:stroke markers fill"/><rect style="fill:#000;fill-opacity:1;fill-rule:nonzero;stroke:none;stroke-width:1.26953;stroke-miterlimit:4;stroke-dasharray:none;paint-order:stroke markers fill" id="rect1556-3" width="80" height="12" x="190" y="429.267"/><rect style="fill:#000;fill-opacity:1;fill-rule:nonzero;stroke:none;stroke-width:.953155;stroke-miterlimit:4;stroke-dasharray:none;paint-order:stroke markers fill" id="rect1552-6" width="20" height="12" x="160" y="449.267"/><rect style="fill:#000;fill-opacity:1;fill-rule:nonzero;stroke:none;stroke-width:1.26953;stroke-miterlimit:4;stroke-dasharray:none;paint-order:stroke markers fill" id="rect1556-7" width="80" height="12" x="190" y="449.267"/><rect style="fill:#000;fill-opacity:1;fill-rule:nonzero;stroke:none;stroke-width:1.40549;stroke-miterlimit:4;stroke-dasharray:none;paint-order:stroke markers fill" id="rect1560-5" width="80" height="12" x="190" y="469.267"/><rect id="rect1556-3-3" width="80" height="12" x="190" y="489.267" style="fill:#000;fill-opacity:1;fill-rule:nonzero;stroke:none;stroke-width:1.26953;stroke-miterlimit:4;stroke-dasharray:none;paint-order:stroke markers fill"/><rect style="fill:#000;fill-opacity:1;fill-rule:nonzero;stroke:none;stroke-width:2.74861;stroke-miterlimit:4;stroke-dasharray:none;paint-order:stroke markers fill" id="rect1556-3-3-5" width="300" height="15" x="0" y="514.267"/><rect id="rect1552-6-6" width="20" height="12" x="160" y="489.267" style="fill:#000;fill-opacity:1;fill-rule:nonzero;stroke:none;stroke-width:.953155;stroke-miterlimit:4;stroke-dasharray:none;paint-order:stroke markers fill"/></g></svg>