<svg xmlns="http://www.w3.org/2000/svg" xmlns:svg="http://www.w3.org/2000/svg" id="svg8" width="300" height="300" version="1.1" viewBox="0 0 300 300"><metadata id="metadata5"/><g id="layer1" transform="translate(0,-229.26665)"><rect id="rect1396" width="298.787" height="298.787" x=".607" y="229.873" style="fill:none;fill-opacity:1;fill-rule:nonzero;stroke:#000;stroke-width:1.21328;paint-order:stroke markers fill"/><path id="path1400" d="m 150,229.26665 v 300" style="fill:none;stroke:#000;stroke-width:1px;stroke-linecap:butt;stroke-linejoin:miter;stroke-opacity:1"/><path id="path1402" d="M 0,379.26665 H 300" style="fill:none;stroke:#000;stroke-width:1px;stroke-linecap:butt;stroke-linejoin:miter;stroke-opacity:1"/><path id="path1546" style="fill:none;stroke:#000;stroke-width:1.14911;stroke-miterlimit:4;stroke-dasharray:none" d="m 10.574556,409.8412 v 98.85088 M 28.989164,409.8412 v 98.85088 M 47.403772,409.8412 v 98.85088 M 65.81838,409.8412 v 98.85088 M 84.232988,409.8412 v 98.85088 M 102.6476,409.8412 v 98.85088 m 18.41459,-98.85088 v 98.85088 m 18.41463,-98.85088 v 98.85088 M 10.574556,409.8412 H 139.77829 M 10.574556,426.31634 H 139.77829 M 10.574556,442.79149 H 139.77829 M 10.574556,459.26664 H 139.77829 M 10.574556,475.74179 H 139.77829 M 10.574556,492.21693 H 139.77829 M 10.574556,508.69208 H 139.77829"/><rect id="rect1550" width="75" height="10" x="10" y="394.267" style="fill:#000;fill-opacity:1;fill-rule:nonzero;stroke:none;stroke-width:1.198;stroke-miterlimit:4;stroke-dasharray:none;paint-order:stroke markers fill"/><rect id="rect1552" width="20" height="12" x="160" y="389.267" style="fill:#000;fill-opacity:1;fill-rule:nonzero;stroke:none;stroke-width:.953155;stroke-miterlimit:4;stroke-dasharray:none;paint-order:stroke markers fill"/><rect id="rect1556" width="80" height="12" x="190" y="389.267" style="fill:#000;fill-opacity:1;fill-rule:nonzero;stroke:none;stroke-width:1.26953;stroke-miterlimit:4;stroke-dasharray:none;paint-order:stroke markers fill"/><rect id="rect1560" width="80" height="12" x="190" y="409.267" style="fill:#000;fill-opacity:1;fill-rule:nonzero;stroke:none;stroke-width:1.40549;stroke-miterlimit:4;stroke-dasharray:none;paint-order:stroke markers fill"/><rect style="fill:#000;fill-opacity:1;fill-rule:nonzero;stroke:none;stroke-width:1.26953;stroke-miterlimit:4;stroke-dasharray:none;paint-order:stroke markers fill" id="rect1556-3" width="80" height="12" x="190" y="429.267"/><rect style="fill:#000;fill-opacity:1;fill-rule:nonzero;stroke:none;stroke-width:.953155;stroke-miterlimit:4;stroke-dasharray:none;paint-order:stroke markers fill" id="rect1552-6" width="20" height="12" x="160" y="449.267"/><rect style="fill:#000;fill-opacity:1;fill-rule:nonzero;stroke:none;stroke-width:1.26953;stroke-miterlimit:4;stroke-dasharray:none;paint-order:stroke markers fill" id="rect1556-7" width="80" height="12" x="190" y="449.267"/><rect style="fill:#000;fill-opacity:1;fill-rule:nonzero;stroke:none;stroke-width:1.40549;stroke-miterlimit:4;stroke-dasharray:none;paint-order:stroke markers fill" id="rect1560-5" width="80" height="12" x="190" y="469.267"/><rect id="rect1556-3-3" width="80" height="12" x="190" y="489.267" style="fill:#000;fill-opacity:1;fill-rule:nonzero;stroke:none;stroke-width:1.26953;stroke-miterlimit:4;stroke-dasharray:none;paint-order:stroke markers fill"/><rect style="fill:#000;fill-opacity:1;fill-rule:nonzero;stroke:none;stroke-width:1.26953;stroke-miterlimit:4;stroke-dasharray:none;paint-order:stroke markers fill" id="rect1556-3-3-5" width="80" height="12" x="190" y="509.267"/><rect id="rect1552-6-6" width="20" height="12" x="160" y="489.267" style="fill:#000;fill-opacity:1;fill-rule:nonzero;stroke:none;stroke-width:.953155;stroke-miterlimit:4;stroke-dasharray:none;paint-order:stroke markers fill"/><path id="path1639" d="m 10.536111,259.26669 c -0.01916,99.48106 -0.01916,99.48106 -0.01916,99.48106 l 129.481059,-0.52199" style="fill:none;stroke:#000;stroke-width:1.03373px;stroke-linecap:butt;stroke-linejoin:miter;stroke-opacity:1"/><path id="path1641" d="m 10.516466,284.47677 c 0,0 23.817767,58.5955 46.758057,59.22743 21.541027,0.59337 24.55264,-52.23515 46.085927,-53.13586 15.82265,-0.66185 36.15167,36.1156 36.15167,36.1156" style="fill:none;stroke:#000;stroke-width:1.11515px;stroke-linecap:butt;stroke-linejoin:miter;stroke-opacity:1"/><text id="text1663" x="192.706" y="323.455" style="font-size:40.0001px;line-height:1.25;font-family:ubuntu;-inkscape-font-specification:ubuntu;letter-spacing:0;word-spacing:0;stroke:#000;stroke-width:1" xml:space="preserve"><tspan style="font-style:normal;font-variant:normal;font-weight:400;font-stretch:normal;font-family:monospace;-inkscape-font-specification:monospace;stroke:#000;stroke-width:1" id="tspan1661" x="192.706" y="323.455">5:00</tspan></text><g id="g1701" transform="translate(-4.1197147,-25.764407)"><circle style="fill:none;fill-opacity:1;fill-rule:nonzero;stroke:#000;stroke-width:2;stroke-miterlimit:4;stroke-dasharray:none;paint-order:stroke markers fill" id="path1669" cx="176.218" cy="336.559" r="16.098"/><path id="path1671" style="fill:none;fill-opacity:1;fill-rule:nonzero;stroke:#000;stroke-width:2;stroke-miterlimit:4;stroke-dasharray:none;paint-order:stroke markers fill" d="m 171.41733,320.85376 c -0.0965,-1.69453 0.75534,-3.30264 2.21139,-4.17479 1.45604,-0.87216 3.2758,-0.8643 4.72426,0.0204 1.44845,0.88472 2.28632,2.50013 2.17518,4.19376"/><path style="fill:#000;fill-opacity:1;fill-rule:nonzero;stroke:none;stroke-width:1.35022;stroke-miterlimit:4;stroke-dasharray:none;paint-order:stroke markers fill" id="path1673" d="m 187.23475,323.97804 a 2.2886055,2.2886055 0 0 1 2.24427,-0.63735 2.2886055,2.2886055 0 0 1 1.63715,1.66215 2.2886055,2.2886055 0 0 1 -0.6713,2.23436 l -1.55008,-1.68373 z"/><path id="path1669-2" style="fill:#000;fill-opacity:1;fill-rule:nonzero;stroke:#000;stroke-width:.807351;stroke-miterlimit:4;stroke-dasharray:none;paint-order:stroke markers fill" d="m 176.19918,323.58694 c 3.45452,0.002 6.76599,1.37808 9.20401,3.82549 2.43801,2.44742 3.80171,5.76454 3.79004,9.21904 h -12.99405 z"/></g></g></svg>