<svg xmlns="http://www.w3.org/2000/svg" xmlns:svg="http://www.w3.org/2000/svg" xmlns:xlink="http://www.w3.org/1999/xlink" id="svg8" width="16" height="16" version="1.1" viewBox="0 0 4.516 4.516"><title id="title1096">Hangouts icon</title><defs id="defs2"><linearGradient id="linearGradient1053"><stop id="stop1049" offset="0" style="stop-color:#3aba7b;stop-opacity:1"/><stop id="stop1051" offset="1" style="stop-color:#077d41;stop-opacity:1"/></linearGradient><linearGradient id="linearGradient1055" x1="-522.844" x2="-522.844" y1="367.098" y2="689.955" gradientTransform="matrix(0.01338392,0,0,0.01336535,-181.3333,178.34226)" gradientUnits="userSpaceOnUse" xlink:href="#linearGradient1053"/></defs><metadata id="metadata5"/><g id="layer1" transform="translate(191.24475,-183.16446)"><g id="g4177"><path style="color:#000;font-style:normal;font-variant:normal;font-weight:400;font-stretch:normal;font-size:medium;line-height:normal;font-family:sans-serif;text-indent:0;text-align:start;text-decoration:none;text-decoration-line:none;text-decoration-style:solid;text-decoration-color:#000;letter-spacing:normal;word-spacing:normal;text-transform:none;direction:ltr;writing-mode:lr-tb;baseline-shift:baseline;text-anchor:start;white-space:normal;clip-rule:nonzero;display:inline;overflow:visible;visibility:visible;opacity:1;isolation:auto;mix-blend-mode:normal;color-interpolation:sRGB;color-interpolation-filters:linearRGB;solid-color:#000;solid-opacity:1;fill:url(#linearGradient1055);fill-opacity:1;fill-rule:nonzero;stroke:none;stroke-width:.81099999;stroke-linecap:butt;stroke-linejoin:miter;stroke-miterlimit:4;stroke-dasharray:none;stroke-dashoffset:0;stroke-opacity:1;paint-order:markers stroke fill;color-rendering:auto;image-rendering:auto;shape-rendering:auto;text-rendering:auto;enable-background:accumulate" id="path870" d="m -188.98697,183.16445 c -1.08282,0 -1.96145,0.86503 -1.96145,1.93181 0,1.05844 0.86561,1.91581 1.93675,1.92918 l 0,0.65457 0.0346,-0.015 c 0.81004,-0.3518 1.45123,-0.99766 1.79014,-1.80315 0.10624,-0.24171 0.16117,-0.50219 0.1614,-0.76559 0,-1.06677 -0.87864,-1.9318 -1.96144,-1.93181 z"/><path style="opacity:1;fill:#fff;fill-opacity:1;stroke:none;stroke-width:.25774848;stroke-linecap:round;stroke-linejoin:round;stroke-miterlimit:4;stroke-dasharray:none;stroke-dashoffset:0;stroke-opacity:1;paint-order:markers stroke fill" id="path893" d="m -189.9623,184.58633 0,0.83369 0.46135,0 0,0.49295 a 0.45320339,0.5012261 0 0 0 0.37352,-0.49295 0.45320339,0.5012261 0 0 0 -3e-5,-8.4e-4 l 0,-0.83285 z"/><path id="rect878" d="m -188.85368,184.58633 0,0.83369 0.46135,0 0,0.49295 a 0.4532034,0.50122611 0 0 0 0.37352,-0.49295 0.4532034,0.50122611 0 0 0 -2e-5,-8.4e-4 l 0,-0.83285 z" style="opacity:1;fill:#fff;fill-opacity:1;stroke:none;stroke-width:.25774848;stroke-linecap:round;stroke-linejoin:round;stroke-miterlimit:4;stroke-dasharray:none;stroke-dashoffset:0;stroke-opacity:1;paint-order:markers stroke fill"/></g></g></svg>